# xmcd CD database file
#
# Track frame offsets:
#	150
#	19748
#	58720
#	90023
#	120733
#	155163
#	180990
#	200710
#	227625
#	251550
#
# Disc length: 3588 seconds
#
# Revision: 0
# Processed by: cddbd v1.5.2PL0 Copyright (c) Steve Scherf et al.
# Submitted via: CDex 1.70beta2
#
DISCID=7a0e020a
DTITLE=European Jazz Trio - Stella By Starlight
DYEAR=1991
DGENRE=Jazz
TTITLE0=Beautiful love (V. Young, W. King, E.V. Alstyne)
TTITLE1=My Funny Valentine (R. Rodgers)
TTITLE2=Concerto D' Aranjuez (J. Rodrigo)
TTITLE3=You don't know what love is (D. Raye, G. De. Paul)
TTITLE4=Stella by Starlight (V. Young)
TTITLE5=Summertime (G. Gershwin)
TTITLE6=Eleanor Rigby (P. McCartney)
TTITLE7=All or Nothing at all (J. Lawrence, A. Altman)
TTITLE8=Autumn leaves (J. Kosma)
TTITLE9=Norwegian wood (P. McCartney)
EXTD=YEAR: 1991
EXTT0=
EXTT1=
EXTT2=
EXTT3=
EXTT4=
EXTT5=
EXTT6=
EXTT7=
EXTT8=
EXTT9=
PLAYORDER=
